<?xml version="1.0" encoding="UTF-8"?>
<svg id="Layer_1" xmlns="http://www.w3.org/2000/svg" version="1.1" viewBox="0 0 74 72">
  <path fill="currentColor" d="M73.3,28.9c-2.6-12.9-12.5-23.6-25.5-27.4-1.9-.6-4.8-1.1-6.8-1.3-1.9-.2-6.8-.2-8.6,0-5.6.7-11.1,2.6-15.8,5.7C9.3,10.6,4,17.5,1.5,25.5c-.6,1.9-1.2,4.7-1.4,6.6-.2,1.8-.2,6.1,0,7.8,1.6,14.3,11.9,26.4,26.1,30.6,3.5,1,6.8,1.5,10.8,1.5s4.7-.1,7.3-.6c4.7-.9,9.1-2.7,13.1-5.2,7.3-4.7,12.6-11.6,15.1-19.6,1.1-3.4,1.5-6.6,1.5-10.5s-.2-4.6-.7-7.1ZM68.2,44c-3,10.9-11.8,19.5-23,22.4-5.2,1.3-11.3,1.3-16.4,0-7.9-2.1-14.9-7.1-19.2-13.8-3.3-5.2-4.9-10.5-4.9-16.6s1.1-9.6,3.4-14.1c4.8-9.2,13.7-15.5,24.1-17,2.5-.4,6.8-.4,9.3,0,12.8,1.8,23.3,10.9,26.6,23.1,1.4,5,1.4,11,0,16Z" fill-rule="evenodd"/>
  <path fill="currentColor" d="M40.9,28.2c-6.2-3.6-11.9-6.7-12.5-6.8-.6-.1-1.4,0-1.9.3-.4.3-.9.7-1.1.9-.2.2-.3,6.8-.3,14.5,0,13.1,0,14.1.7,14.7,1.7,1.5,2.9,1,14.9-6,12.2-7.1,12.6-7.5,11.8-9.8-.3-.9-2.5-2.3-11.7-7.7Z" fill-rule="evenodd"/>
</svg>