<svg width="74" height="72" viewBox="0 0 74 72" fill="none" xmlns="http://www.w3.org/2000/svg">
<path fill="currentColor" fill-rule="evenodd" d="M32.3721 0.1946C26.7467 0.872449 21.2969 2.83412 16.6052 5.86974C9.31931 10.5837 4.01637 17.4822 1.52173 25.4912C0.940531 27.3572 0.350802 30.1772 0.14353 32.0818C-0.0478432 33.839 -0.0478432 38.1422 0.14353 39.8995C1.69605 54.1618 12.0666 66.3424 26.2084 70.514C29.7306 71.553 32.9763 72 36.9974 72C40.0198 72 41.6771 71.8526 44.292 71.3513C49 70.4486 53.4182 68.6811 57.3896 66.1115C64.6755 61.3975 69.9784 54.499 72.4731 46.49C73.5406 43.0624 74 39.9038 74 35.9906C74 33.0494 73.8485 31.4365 73.3334 28.8918C70.7128 15.9473 60.8 5.30596 47.7864 1.46717C45.8689 0.901566 42.9711 0.327666 41.0141 0.125957C39.1197 -0.0694216 34.241 -0.030599 32.3721 0.1946ZM41.5981 4.90016C54.4089 6.73438 64.8729 15.8155 68.2118 27.9968C69.5913 33.029 69.5913 38.9522 68.2118 43.9844C65.2191 54.9026 56.431 63.4548 45.2117 66.3672C40.0407 67.7097 33.9541 67.7097 28.7831 66.3672C20.8842 64.3168 13.8609 59.2691 9.61721 52.5926C6.33164 47.4239 4.76596 42.0658 4.76596 35.9906C4.76596 30.8058 5.82979 26.4131 8.17252 21.9244C12.9758 12.7215 21.8704 6.43956 32.2657 4.90845C34.7918 4.5364 39.0309 4.53261 41.5981 4.90016ZM26.1079 22.7036C24.8441 23.1578 23.6172 24.4209 23.2796 25.6153C23.1554 26.0543 23.1213 28.9051 23.1519 36.2719L23.1937 46.3292L23.528 46.9896C23.9546 47.8325 24.8289 48.6834 25.695 49.0984L26.3736 49.4238H36.9974H47.6212L48.2998 49.0984C49.1659 48.6834 50.0402 47.8325 50.4668 46.9896L50.8011 46.3292V35.9906V25.652L50.4668 24.9916C50.0402 24.1487 49.1659 23.2979 48.2998 22.8828L47.6212 22.5574L37.1419 22.5307C28.4053 22.5085 26.5705 22.5373 26.1079 22.7036Z"/>
</svg>
